<?xml version="1.0" encoding="utf-8"?>
<svg data-v-6805eed4="" version="1.0" width="100%" height="100%" viewBox="0 5.031 259.497 74.529" preserveAspectRatio="xMidYMid meet" color-interpolation-filters="sRGB" style="margin: auto;" xmlns="http://www.w3.org/2000/svg">
  <rect data-v-6805eed4="" x="0" y="0" width="100%" height="100%" fill="url(#watermark)" fill-opacity="1" class="watermarklayer"/>
  <g>
    <g class="iconsvg-imagesvg" transform="matrix(1, 0, 0, 1, 8.153225, 7.56813)" fill="#333">
      <g>
        <rect fill="#333" fill-opacity="0" stroke-width="2" x="0" y="0" width="60" height="69.28166460746164" class="image-rect"/>
        <svg x="0" y="0" width="60" height="69.28166460746164" filtersec="colorsb9488143958" class="image-svg-svg primary" style="overflow: visible;">
          <svg xmlns="http://www.w3.org/2000/svg" viewBox="0 0 68.19999694824219 78.75">
            <title>资源 12</title>
            <path fill="#00b0e5" d="M68.2 41.16v17.9L34.1 78.75V57.28l15.51-8.95V27.71L68.2 41.16zM34.1 0v21.47l-15.51 8.95v20.62L0 37.59v-17.9L34.1 0z"/>
            <path fill="#0083ac" d="M0 37.59l18.59 3.66v9.79L0 37.59z"/>
            <path fill="#69cfef" d="M34.1 57.28L15.51 68.02 0 59.06V37.59l18.59 10.74 15.51 8.95z"/>
            <path fill="#0083ac" d="M68.2 41.16L49.61 37.5v-9.79L68.2 41.16z"/>
            <path fill="#69cfef" d="M68.2 19.69v21.47L49.61 30.42 34.1 21.47l18.6-10.74 15.5 8.96z"/>
          </svg>
        </svg>
      </g>
    </g>
    <g transform="matrix(1, 0, 0, 1, 73.276176, 23.779877)" fill="#333">
      <g data-gra="path-name" fill-rule="" class="tp-name iconsvg-namesvg" transform="translate(0,0)">
        <g transform="scale(1)">
          <g>
            <path d="M20.33-21.07L20.33-2.69 4.89-21.07 1.64-21.07 1.64 0 4.01 0 4.01-18.37 19.46 0 22.7 0 22.7-21.07ZM25.84-13.43L25.84-3.54C25.84-1.61 27.44 0 29.38 0L39.56 0C41.52 0 43.13-1.59 43.13-3.54L43.13-13.43C43.13-15.38 41.52-16.97 39.56-16.97L29.38-16.97C27.44-16.97 25.84-15.36 25.84-13.43ZM40.7-13.43L40.7-3.54C40.7-2.92 40.18-2.4 39.56-2.4L29.38-2.4C28.76-2.4 28.23-2.92 28.23-3.54L28.23-13.43C28.23-14.05 28.76-14.57 29.38-14.57L39.56-14.57C40.18-14.57 40.7-14.05 40.7-13.43ZM63.55-16.97L55.59-2.34 47.63-16.97 44.82-16.97 54.19 0 56.97 0 66.36-16.97ZM67.94-13.43L67.94-3.54C67.94-1.61 69.54 0 71.48 0L85.23 0 85.23-2.4 71.48-2.4C70.86-2.4 70.34-2.92 70.34-3.54L70.34-7.29 85.23-7.29 85.23-13.43C85.23-15.38 83.62-16.97 81.66-16.97L71.48-16.97C69.54-16.97 67.94-15.36 67.94-13.43ZM71.48-14.57L81.66-14.57C82.28-14.57 82.8-14.05 82.8-13.43L82.8-9.68 70.34-9.68 70.34-13.43C70.34-14.05 70.86-14.57 71.48-14.57ZM91.17 0L94.04 0 94.04-2.4 91.17-2.4C90.55-2.4 90.03-2.92 90.03-3.54L90.03-22.53 87.63-22.53 87.63-3.54C87.63-1.61 89.24 0 91.17 0ZM117.71-3.51L117.71-17.56C117.71-19.49 116.13-21.07 114.2-21.07L96.64-21.07 96.64 0 114.2 0C116.13 0 117.71-1.58 117.71-3.51ZM114.2-2.37L100.15-2.37C99.53-2.37 99.01-2.89 99.01-3.51L99.01-17.56C99.01-18.17 99.53-18.7 100.15-18.7L114.2-18.7C114.82-18.7 115.34-18.17 115.34-17.56L115.34-3.51C115.34-2.89 114.82-2.37 114.2-2.37ZM120.84-13.43L120.84-3.54C120.84-1.61 122.44 0 124.38 0L134.56 0C136.52 0 138.13-1.59 138.13-3.54L138.13-13.43C138.13-15.38 136.52-16.97 134.56-16.97L124.38-16.97C122.44-16.97 120.84-15.36 120.84-13.43ZM135.7-13.43L135.7-3.54C135.7-2.92 135.18-2.4 134.56-2.4L124.38-2.4C123.76-2.4 123.24-2.92 123.24-3.54L123.24-13.43C123.24-14.05 123.76-14.57 124.38-14.57L134.56-14.57C135.18-14.57 135.7-14.05 135.7-13.43ZM143.49-3.54L143.49-13.43C143.49-14.05 144.01-14.57 144.63-14.57L158.32-14.57 158.32-16.97 144.63-16.97C142.69-16.97 141.09-15.36 141.09-13.43L141.09-3.54C141.09-1.61 142.69 0 144.63 0L158.38 0 158.38-2.4 144.63-2.4C144.01-2.4 143.49-2.92 143.49-3.54ZM175.06-16.97L164.87-16.97C162.94-16.97 161.33-15.36 161.33-13.43L161.33-10.83C161.33-8.89 162.94-7.29 164.87-7.29L175.06-7.29C175.67-7.29 176.2-6.76 176.2-6.14L176.2-3.54C176.2-2.92 175.67-2.4 175.06-2.4L164.87-2.4C164.25-2.4 163.73-2.92 163.73-3.54L163.73-3.77 161.33-3.77 161.33-3.54C161.33-1.61 162.94 0 164.87 0L175.06 0C177.01 0 178.62-1.59 178.62-3.54L178.62-6.14C178.62-8.09 177.01-9.68 175.06-9.68L164.87-9.68C164.25-9.68 163.73-10.21 163.73-10.83L163.73-13.43C163.73-14.05 164.25-14.57 164.87-14.57L175.06-14.57C175.67-14.57 176.2-14.05 176.2-13.43L176.2-13.2 178.62-13.2 178.62-13.43C178.62-15.38 177.01-16.97 175.06-16.97Z" transform="translate(-1.6400001049041748, 22.530000686645508)"/>
          </g>
        </g>
      </g>
      <g data-gra="path-slogan" fill-rule="" class="tp-slogan iconsvg-slogansvg" fill="#333" transform="translate(5.000007629394531,28.530000686645508)">
        <rect x="0" height="1" y="3.580000400543213" width="3.6500015258789062"/>
        <rect height="1" y="3.580000400543213" width="3.6500015258789062" x="163.32999420166016"/>
        <g transform="translate(6.650001525878906,0)">
          <g transform="scale(1)">
            <path d="M1.08-7.87L1.08 0L5.74 0L5.74-0.85L2.08-0.85L2.08-3.71L5.06-3.71L5.06-4.56L2.08-4.56L2.08-7.03L5.62-7.03L5.62-7.87ZM7.40-7.87L7.40 0L8.33 0L8.33-4.33C8.33-4.68 8.31-5.07 8.28-5.50C8.25-5.92 8.22-6.31 8.20-6.66L8.24-6.66L8.87-4.91L10.39-0.79L10.96-0.79L12.47-4.91L13.10-6.66L13.15-6.66C13.12-6.31 13.09-5.92 13.06-5.50C13.03-5.07 13.02-4.68 13.02-4.33L13.02 0L13.97 0L13.97-7.87L12.79-7.87L11.28-3.65L10.73-2.04L10.68-2.04L10.10-3.65L8.58-7.87ZM16.13-7.87L16.13 0L17.12 0L17.12-3.12L18.54-3.12C18.97-3.12 19.37-3.17 19.72-3.27C20.08-3.37 20.38-3.52 20.64-3.72C20.90-3.92 21.09-4.17 21.23-4.48C21.37-4.78 21.44-5.14 21.44-5.56C21.44-5.99 21.37-6.35 21.23-6.65C21.09-6.94 20.90-7.18 20.65-7.36C20.39-7.54 20.09-7.67 19.73-7.75C19.37-7.83 18.97-7.87 18.54-7.87ZM18.42-3.94L17.12-3.94L17.12-7.07L18.42-7.07C19.10-7.07 19.61-6.96 19.94-6.74C20.28-6.52 20.45-6.12 20.45-5.56C20.45-5.00 20.28-4.59 19.95-4.33C19.62-4.07 19.11-3.94 18.42-3.94ZM25.94 0.14C26.44 0.14 26.89 0.05 27.31-0.14C27.72-0.34 28.07-0.61 28.37-0.97C28.67-1.32 28.91-1.75 29.07-2.26C29.23-2.77 29.32-3.34 29.32-3.97C29.32-4.60 29.23-5.16 29.07-5.66C28.91-6.16 28.67-6.58 28.37-6.93C28.07-7.28 27.72-7.55 27.31-7.73C26.89-7.92 26.44-8.02 25.94-8.02C25.45-8.02 24.99-7.92 24.58-7.74C24.17-7.56 23.82-7.29 23.52-6.94C23.22-6.59 22.99-6.17 22.83-5.67C22.67-5.17 22.58-4.60 22.58-3.97C22.58-3.34 22.67-2.77 22.83-2.26C22.99-1.75 23.22-1.32 23.52-0.97C23.82-0.61 24.17-0.34 24.58-0.14C24.99 0.05 25.45 0.14 25.94 0.14ZM25.94-0.73C25.59-0.73 25.27-0.81 24.99-0.96C24.71-1.11 24.46-1.33 24.26-1.61C24.05-1.90 23.90-2.24 23.78-2.63C23.67-3.03 23.62-3.48 23.62-3.97C23.62-4.46 23.67-4.90 23.78-5.29C23.90-5.68 24.05-6.02 24.26-6.29C24.46-6.56 24.71-6.77 24.99-6.92C25.27-7.07 25.59-7.14 25.94-7.14C26.30-7.14 26.61-7.07 26.90-6.92C27.18-6.77 27.43-6.56 27.63-6.29C27.83-6.02 27.99-5.68 28.10-5.29C28.22-4.90 28.27-4.46 28.27-3.97C28.27-3.48 28.22-3.03 28.10-2.63C27.99-2.24 27.83-1.90 27.63-1.61C27.43-1.33 27.18-1.11 26.90-0.96C26.61-0.81 26.30-0.73 25.94-0.73ZM30.13-7.87L31.80 0L32.99 0L34.15-4.74C34.22-5.04 34.28-5.34 34.35-5.63C34.42-5.93 34.48-6.22 34.55-6.53L34.60-6.53C34.66-6.22 34.72-5.93 34.78-5.63C34.84-5.34 34.91-5.04 34.98-4.74L36.17 0L37.37 0L39-7.87L38.04-7.87L37.21-3.59C37.13-3.16 37.06-2.74 36.98-2.32C36.91-1.90 36.84-1.48 36.77-1.04L36.72-1.04C36.62-1.48 36.53-1.90 36.43-2.33C36.34-2.75 36.24-3.17 36.14-3.59L35.05-7.87L34.14-7.87L33.05-3.59C32.96-3.16 32.87-2.74 32.77-2.32C32.68-1.90 32.58-1.48 32.50-1.04L32.45-1.04C32.38-1.48 32.30-1.90 32.22-2.32C32.14-2.73 32.06-3.16 31.99-3.59L31.16-7.87ZM40.37-7.87L40.37 0L45.02 0L45.02-0.85L41.36-0.85L41.36-3.71L44.35-3.71L44.35-4.56L41.36-4.56L41.36-7.03L44.90-7.03L44.90-7.87ZM47.69-4.14L47.69-7.07L49.01-7.07C49.62-7.07 50.10-6.96 50.42-6.76C50.75-6.55 50.92-6.18 50.92-5.66C50.92-5.15 50.75-4.77 50.42-4.52C50.10-4.27 49.62-4.14 49.01-4.14ZM51.01 0L52.14 0L50.15-3.43C50.68-3.57 51.11-3.82 51.43-4.19C51.75-4.56 51.91-5.05 51.91-5.66C51.91-6.07 51.84-6.42 51.71-6.70C51.57-6.98 51.38-7.20 51.14-7.38C50.89-7.56 50.60-7.68 50.26-7.76C49.92-7.83 49.55-7.87 49.15-7.87L46.69-7.87L46.69 0L47.69 0L47.69-3.32L49.12-3.32ZM53.66-7.87L53.66 0L54.66 0L54.66-7.87ZM56.82-7.87L56.82 0L57.77 0L57.77-4.12C57.77-4.53 57.75-4.95 57.73-5.36C57.70-5.77 57.67-6.18 57.64-6.58L57.68-6.58L58.54-4.96L61.39 0L62.42 0L62.42-7.87L61.48-7.87L61.48-3.80C61.48-3.39 61.49-2.97 61.52-2.54C61.55-2.11 61.57-1.70 61.60-1.30L61.55-1.30L60.70-2.93L57.85-7.87ZM64.13-3.94C64.13-3.30 64.22-2.72 64.39-2.21C64.57-1.71 64.81-1.28 65.12-0.93C65.44-0.58 65.81-0.32 66.24-0.13C66.67 0.05 67.15 0.14 67.67 0.14C68.20 0.14 68.67 0.06 69.09-0.11C69.51-0.29 69.85-0.50 70.10-0.77L70.10-4.08L67.52-4.08L67.52-3.25L69.19-3.25L69.19-1.20C69.03-1.06 68.83-0.94 68.57-0.86C68.32-0.77 68.06-0.73 67.78-0.73C67.35-0.73 66.98-0.81 66.65-0.96C66.33-1.11 66.06-1.33 65.84-1.61C65.62-1.89 65.45-2.23 65.33-2.62C65.22-3.02 65.16-3.46 65.16-3.96C65.16-4.45 65.22-4.89 65.35-5.28C65.47-5.67 65.64-6.01 65.87-6.28C66.09-6.56 66.36-6.77 66.68-6.92C67.00-7.07 67.36-7.14 67.76-7.14C68.16-7.14 68.49-7.07 68.75-6.93C69.01-6.79 69.24-6.62 69.44-6.41L70.01-7.04C69.78-7.28 69.48-7.51 69.11-7.71C68.75-7.91 68.30-8.02 67.75-8.02C67.22-8.02 66.74-7.92 66.30-7.73C65.86-7.55 65.48-7.28 65.15-6.92C64.83-6.57 64.58-6.14 64.40-5.64C64.22-5.14 64.13-4.57 64.13-3.94ZM74.41-7.87L74.41 0L75.36 0L75.36-4.12C75.36-4.53 75.35-4.95 75.32-5.36C75.29-5.77 75.26-6.18 75.23-6.58L75.28-6.58L76.13-4.96L78.98 0L80.02 0L80.02-7.87L79.07-7.87L79.07-3.80C79.07-3.39 79.08-2.97 79.11-2.54C79.14-2.11 79.16-1.70 79.19-1.30L79.14-1.30L78.29-2.93L75.44-7.87ZM85.08 0.14C85.58 0.14 86.03 0.05 86.44-0.14C86.85-0.34 87.21-0.61 87.51-0.97C87.81-1.32 88.04-1.75 88.21-2.26C88.37-2.77 88.45-3.34 88.45-3.97C88.45-4.60 88.37-5.16 88.21-5.66C88.04-6.16 87.81-6.58 87.51-6.93C87.21-7.28 86.85-7.55 86.44-7.73C86.03-7.92 85.58-8.02 85.08-8.02C84.58-8.02 84.13-7.92 83.72-7.74C83.31-7.56 82.95-7.29 82.66-6.94C82.36-6.59 82.13-6.17 81.97-5.67C81.80-5.17 81.72-4.60 81.72-3.97C81.72-3.34 81.80-2.77 81.97-2.26C82.13-1.75 82.36-1.32 82.66-0.97C82.95-0.61 83.31-0.34 83.72-0.14C84.13 0.05 84.58 0.14 85.08 0.14ZM85.08-0.73C84.73-0.73 84.41-0.81 84.13-0.96C83.84-1.11 83.60-1.33 83.39-1.61C83.19-1.90 83.03-2.24 82.92-2.63C82.81-3.03 82.75-3.48 82.75-3.97C82.75-4.46 82.81-4.90 82.92-5.29C83.03-5.68 83.19-6.02 83.39-6.29C83.60-6.56 83.84-6.77 84.13-6.92C84.41-7.07 84.73-7.14 85.08-7.14C85.43-7.14 85.75-7.07 86.03-6.92C86.32-6.77 86.56-6.56 86.77-6.29C86.97-6.02 87.13-5.68 87.24-5.29C87.35-4.90 87.41-4.46 87.41-3.97C87.41-3.48 87.35-3.03 87.24-2.63C87.13-2.24 86.97-1.90 86.77-1.61C86.56-1.33 86.32-1.11 86.03-0.96C85.75-0.81 85.43-0.73 85.08-0.73ZM88.94-7.87L91.46 0L92.63 0L95.12-7.87L94.10-7.87L92.84-3.62C92.71-3.15 92.58-2.72 92.47-2.32C92.36-1.92 92.23-1.48 92.09-1.02L92.04-1.02C91.89-1.48 91.76-1.92 91.65-2.32C91.54-2.72 91.42-3.15 91.27-3.62L90.01-7.87ZM96.20-7.87L96.20 0L100.86 0L100.86-0.85L97.20-0.85L97.20-3.71L100.19-3.71L100.19-4.56L97.20-4.56L97.20-7.03L100.74-7.03L100.74-7.87ZM102.53-7.87L102.53 0L106.97 0L106.97-0.85L103.52-0.85L103.52-7.87ZM109.98-7.87L111.65 0L112.84 0L114-4.74C114.06-5.04 114.13-5.34 114.20-5.63C114.27-5.93 114.33-6.22 114.40-6.53L114.44-6.53C114.51-6.22 114.57-5.93 114.63-5.63C114.69-5.34 114.76-5.04 114.83-4.74L116.02 0L117.22 0L118.85-7.87L117.89-7.87L117.06-3.59C116.98-3.16 116.90-2.74 116.83-2.32C116.76-1.90 116.69-1.48 116.62-1.04L116.57-1.04C116.47-1.48 116.38-1.90 116.28-2.33C116.18-2.75 116.09-3.17 115.99-3.59L114.90-7.87L113.99-7.87L112.90-3.59C112.81-3.16 112.72-2.74 112.62-2.32C112.52-1.90 112.43-1.48 112.34-1.04L112.30-1.04C112.22-1.48 112.15-1.90 112.07-2.32C111.99-2.73 111.91-3.16 111.84-3.59L111.01-7.87ZM121.21-4.14L121.21-7.07L122.53-7.07C123.15-7.07 123.62-6.96 123.95-6.76C124.28-6.55 124.44-6.18 124.44-5.66C124.44-5.15 124.28-4.77 123.95-4.52C123.62-4.27 123.15-4.14 122.53-4.14ZM124.54 0L125.66 0L123.67-3.43C124.21-3.57 124.64-3.82 124.96-4.19C125.28-4.56 125.44-5.05 125.44-5.66C125.44-6.07 125.37-6.42 125.23-6.70C125.10-6.98 124.91-7.20 124.66-7.38C124.42-7.56 124.13-7.68 123.79-7.76C123.45-7.83 123.08-7.87 122.68-7.87L120.22-7.87L120.22 0L121.21 0L121.21-3.32L122.64-3.32ZM127.19-7.87L127.19 0L128.18 0L128.18-7.87ZM131.98-7.03L131.98 0L132.98 0L132.98-7.03L135.36-7.03L135.36-7.87L129.60-7.87L129.60-7.03ZM136.78-7.87L136.78 0L141.43 0L141.43-0.85L137.77-0.85L137.77-3.71L140.76-3.71L140.76-4.56L137.77-4.56L137.77-7.03L141.31-7.03L141.31-7.87ZM144.10-4.14L144.10-7.07L145.42-7.07C146.03-7.07 146.50-6.96 146.83-6.76C147.16-6.55 147.32-6.18 147.32-5.66C147.32-5.15 147.16-4.77 146.83-4.52C146.50-4.27 146.03-4.14 145.42-4.14ZM147.42 0L148.55 0L146.56-3.43C147.09-3.57 147.52-3.82 147.84-4.19C148.16-4.56 148.32-5.05 148.32-5.66C148.32-6.07 148.25-6.42 148.12-6.70C147.98-6.98 147.79-7.20 147.55-7.38C147.30-7.56 147.01-7.68 146.67-7.76C146.33-7.83 145.96-7.87 145.56-7.87L143.10-7.87L143.10 0L144.10 0L144.10-3.32L145.52-3.32ZM149.93-1.72L149.33-1.02C149.67-0.66 150.08-0.38 150.55-0.17C151.02 0.04 151.54 0.14 152.09 0.14C152.50 0.14 152.88 0.09 153.20-0.03C153.53-0.15 153.81-0.31 154.04-0.51C154.28-0.71 154.45-0.95 154.58-1.22C154.70-1.50 154.76-1.79 154.76-2.10C154.76-2.39 154.72-2.64 154.64-2.86C154.55-3.08 154.44-3.27 154.30-3.44C154.15-3.60 153.98-3.75 153.78-3.87C153.58-3.99 153.37-4.10 153.14-4.20L152.03-4.68C151.87-4.74 151.71-4.81 151.56-4.89C151.41-4.97 151.27-5.05 151.14-5.15C151.01-5.25 150.91-5.37 150.83-5.50C150.76-5.63 150.72-5.80 150.72-5.99C150.72-6.35 150.85-6.63 151.12-6.83C151.39-7.04 151.74-7.14 152.18-7.14C152.55-7.14 152.88-7.07 153.17-6.94C153.47-6.81 153.73-6.63 153.97-6.40L154.51-7.04C154.23-7.33 153.89-7.57 153.49-7.75C153.09-7.93 152.66-8.02 152.18-8.02C151.82-8.02 151.49-7.96 151.19-7.86C150.89-7.76 150.63-7.61 150.41-7.42C150.19-7.23 150.02-7.01 149.90-6.76C149.77-6.50 149.71-6.22 149.71-5.93C149.71-5.64 149.76-5.39 149.86-5.17C149.95-4.95 150.08-4.76 150.23-4.60C150.38-4.44 150.55-4.30 150.74-4.19C150.94-4.08 151.12-3.98 151.31-3.90L152.44-3.41C152.62-3.32 152.79-3.24 152.95-3.16C153.11-3.08 153.25-2.99 153.37-2.89C153.48-2.79 153.57-2.67 153.64-2.53C153.71-2.39 153.74-2.22 153.74-2.02C153.74-1.63 153.60-1.32 153.31-1.09C153.02-0.85 152.62-0.73 152.10-0.73C151.69-0.73 151.30-0.82 150.92-1.00C150.54-1.18 150.21-1.42 149.93-1.72Z" transform="translate(-1.08, 8.016)"/>
          </g>
        </g>
      </g>
    </g>
  </g>
</svg>